<mxfile host="app.diagrams.net" agent="Mozilla/5.0 (Macintosh; Intel Mac OS X 10_15_7) AppleWebKit/537.36 (KHTML, like Gecko) Chrome/130.0.0.0 Safari/537.36" version="24.8.3">
  <diagram id="C5RBs43oDa-KdzZeNtuy" name="Page-1">
    <mxGraphModel dx="984" dy="658" grid="1" gridSize="10" guides="1" tooltips="1" connect="1" arrows="1" fold="1" page="1" pageScale="1" pageWidth="827" pageHeight="1169" math="0" shadow="0">
      <root>
        <mxCell id="WIyWlLk6GJQsqaUBKTNV-0" />
        <mxCell id="WIyWlLk6GJQsqaUBKTNV-1" parent="WIyWlLk6GJQsqaUBKTNV-0" />
        <mxCell id="HEasWuCLrtM_OaEN57CB-7" style="edgeStyle=orthogonalEdgeStyle;rounded=0;orthogonalLoop=1;jettySize=auto;html=1;entryX=0.5;entryY=0;entryDx=0;entryDy=0;" edge="1" parent="WIyWlLk6GJQsqaUBKTNV-1" source="HEasWuCLrtM_OaEN57CB-1" target="HEasWuCLrtM_OaEN57CB-2">
          <mxGeometry relative="1" as="geometry" />
        </mxCell>
        <mxCell id="HEasWuCLrtM_OaEN57CB-1" value="Registration&lt;div&gt;&lt;span style=&quot;text-align: left;&quot;&gt;Fill height, weight, goal, and diet preference&lt;/span&gt;&lt;/div&gt;" style="rounded=1;whiteSpace=wrap;html=1;" vertex="1" parent="WIyWlLk6GJQsqaUBKTNV-1">
          <mxGeometry x="305" y="60" width="200" height="90" as="geometry" />
        </mxCell>
        <mxCell id="HEasWuCLrtM_OaEN57CB-9" value="Feature 1" style="edgeStyle=orthogonalEdgeStyle;rounded=0;orthogonalLoop=1;jettySize=auto;html=1;entryX=1;entryY=0.5;entryDx=0;entryDy=0;" edge="1" parent="WIyWlLk6GJQsqaUBKTNV-1" source="HEasWuCLrtM_OaEN57CB-2" target="HEasWuCLrtM_OaEN57CB-8">
          <mxGeometry relative="1" as="geometry" />
        </mxCell>
        <mxCell id="HEasWuCLrtM_OaEN57CB-2" value="1. Analyze the meal&lt;div&gt;2. Suggest meal plan for the following week&lt;/div&gt;&lt;div&gt;3. Analyze groceries and generate meal plan&lt;/div&gt;" style="rounded=1;whiteSpace=wrap;html=1;" vertex="1" parent="WIyWlLk6GJQsqaUBKTNV-1">
          <mxGeometry x="270" y="220" width="270" height="120" as="geometry" />
        </mxCell>
        <mxCell id="HEasWuCLrtM_OaEN57CB-8" value="Take a photo of existing meal" style="rounded=1;whiteSpace=wrap;html=1;" vertex="1" parent="WIyWlLk6GJQsqaUBKTNV-1">
          <mxGeometry x="40" y="250" width="120" height="60" as="geometry" />
        </mxCell>
        <mxCell id="HEasWuCLrtM_OaEN57CB-10" value="" style="rounded=1;whiteSpace=wrap;html=1;" vertex="1" parent="WIyWlLk6GJQsqaUBKTNV-1">
          <mxGeometry x="40" y="400" width="120" height="60" as="geometry" />
        </mxCell>
      </root>
    </mxGraphModel>
  </diagram>
</mxfile>
